<svg width="1434" height="1106" viewBox="0 0 1434 1106" fill="none" xmlns="http://www.w3.org/2000/svg">
<path d="M0 45.7548C0 20.4851 19.781 0 44.1821 0H1388.85C1413.26 0 1433.04 20.4851 1433.04 45.7548V1059.32C1433.04 1084.59 1413.26 1105.08 1388.85 1105.08H44.1821C19.781 1105.08 0 1084.59 0 1059.32V45.7548Z" fill="#700072" fill-opacity="0.41"/>
<path d="M69.4288 228.774C69.4288 206.8 86.6296 188.987 107.848 188.987H484.564C505.782 188.987 539.901 206.8 539.901 228.774C539.901 250.748 505.782 268.561 484.564 268.561H107.848C86.6296 268.561 69.4288 250.748 69.4288 228.774Z" fill="#2700C1" fill-opacity="0.62"/>
<path d="M880.353 228.774C880.353 206.8 918.286 188.987 939.505 188.987H1337.26C1358.48 188.987 1375.68 206.8 1375.68 228.774C1375.68 250.748 1358.48 268.561 1337.26 268.561H939.505C918.286 268.561 880.353 250.748 880.353 228.774Z" fill="#C10074" fill-opacity="0.62"/>
<path d="M69.4288 330.23C69.4288 308.257 86.6296 290.444 107.848 290.444H484.564C505.782 290.444 539.901 308.257 539.901 330.23C539.901 352.204 505.782 370.017 484.564 370.017H107.848C86.6296 370.017 69.4288 352.204 69.4288 330.23Z" fill="#2700C1" fill-opacity="0.62"/>
<path d="M880.353 330.23C880.353 308.257 918.286 290.444 939.505 290.444H1337.26C1358.48 290.444 1375.68 308.257 1375.68 330.23C1375.68 352.204 1358.48 370.017 1337.26 370.017H939.505C918.286 370.017 880.353 352.204 880.353 330.23Z" fill="#C10074" fill-opacity="0.62"/>
<path d="M69.4288 431.687C69.4288 409.713 86.6296 391.9 107.848 391.9H484.564C505.782 391.9 539.901 409.713 539.901 431.687C539.901 453.66 505.782 471.473 484.564 471.473H107.848C86.6296 471.473 69.4288 453.66 69.4288 431.687Z" fill="#2700C1" fill-opacity="0.62"/>
<path d="M880.353 431.687C880.353 409.713 918.286 391.9 939.505 391.9H1337.26C1358.48 391.9 1375.68 409.713 1375.68 431.687C1375.68 453.66 1358.48 471.473 1337.26 471.473H939.505C918.286 471.473 880.353 453.66 880.353 431.687Z" fill="#C10074" fill-opacity="0.62"/>
<path d="M69.4288 533.143C69.4288 511.169 86.6296 493.356 107.848 493.356H484.564C505.782 493.356 539.901 511.169 539.901 533.143C539.901 555.117 505.782 572.93 484.564 572.93H107.848C86.6296 572.93 69.4288 555.117 69.4288 533.143Z" fill="#2700C1" fill-opacity="0.62"/>
<path d="M880.353 533.143C880.353 511.169 918.286 493.356 939.505 493.356H1337.26C1358.48 493.356 1375.68 511.169 1375.68 533.143C1375.68 555.117 1358.48 572.93 1337.26 572.93H939.505C918.286 572.93 880.353 555.117 880.353 533.143Z" fill="#C10074" fill-opacity="0.62"/>
<path d="M69.4288 634.599C69.4288 612.626 86.6296 594.813 107.848 594.813H484.564C505.782 594.813 539.901 612.626 539.901 634.599C539.901 656.573 505.782 674.386 484.564 674.386H107.848C86.6296 674.386 69.4288 656.573 69.4288 634.599Z" fill="#2700C1" fill-opacity="0.62"/>
<path d="M880.353 634.599C880.353 612.626 918.286 594.813 939.505 594.813H1337.26C1358.48 594.813 1375.68 612.626 1375.68 634.599C1375.68 656.573 1358.48 674.386 1337.26 674.386H939.505C918.286 674.386 880.353 656.573 880.353 634.599Z" fill="#C10074" fill-opacity="0.62"/>
<path d="M69.429 736.056C69.429 714.082 86.6296 696.269 107.848 696.269H484.564C505.782 696.269 539.901 714.082 539.901 736.056C539.901 758.029 505.782 775.842 484.564 775.842H107.848C86.6296 775.842 69.429 758.029 69.429 736.056Z" fill="#2700C1" fill-opacity="0.62"/>
<path d="M880.353 736.056C880.353 714.082 918.286 696.269 939.505 696.269H1337.26C1358.48 696.269 1375.68 714.082 1375.68 736.056C1375.68 758.029 1358.48 775.842 1337.26 775.842H939.505C918.286 775.842 880.353 758.029 880.353 736.056Z" fill="#C10074" fill-opacity="0.62"/>
<path d="M69.4288 837.512C69.4288 815.538 86.6296 797.725 107.848 797.725H484.564C505.782 797.725 539.901 815.538 539.901 837.512C539.901 859.486 505.782 877.299 484.564 877.299H107.848C86.6296 877.299 69.4288 859.486 69.4288 837.512Z" fill="#2700C1" fill-opacity="0.62"/>
<path d="M880.353 837.512C880.353 815.538 918.286 797.725 939.505 797.725H1337.26C1358.48 797.725 1375.68 815.538 1375.68 837.512C1375.68 859.486 1358.48 877.299 1337.26 877.299H939.505C918.286 877.299 880.353 859.486 880.353 837.512Z" fill="#C10074" fill-opacity="0.62"/>
<path d="M69.4288 938.968C69.4288 916.995 86.6296 899.181 107.848 899.181H484.564C505.782 899.181 539.901 916.995 539.901 938.968C539.901 960.942 505.782 978.755 484.564 978.755H107.848C86.6296 978.755 69.4288 960.942 69.4288 938.968Z" fill="#2700C1" fill-opacity="0.62"/>
<path d="M880.353 938.968C880.353 916.995 918.286 899.181 939.505 899.181H1321.75C1342.97 899.181 1375.68 916.995 1375.68 938.968C1375.68 960.942 1342.97 978.755 1321.75 978.755H939.505C918.286 978.755 880.353 960.942 880.353 938.968Z" fill="#C10074" fill-opacity="0.62"/>
<path d="M69.4288 1040.42C69.4288 1018.45 86.6296 1000.64 107.848 1000.64H484.564C505.782 1000.64 539.901 1018.45 539.901 1040.42C539.901 1062.4 505.782 1080.21 484.564 1080.21H107.848C86.6296 1080.21 69.4288 1062.4 69.4288 1040.42Z" fill="#2700C1" fill-opacity="0.62"/>
<path d="M880.353 938.968C880.353 916.995 918.286 899.181 939.505 899.181H1321.75C1342.97 899.181 1375.68 916.995 1375.68 938.968C1375.68 960.942 1342.97 978.755 1321.75 978.755H939.505C918.286 978.755 880.353 960.942 880.353 938.968Z" fill="#C10074" fill-opacity="0.62"/>
<path d="M880.353 1040.42C880.353 1018.45 901.086 1000.64 939.505 1000.64L1321.75 1000.64C1342.97 1000.64 1375.68 1018.45 1375.68 1040.42C1375.68 1062.4 1342.97 1080.21 1321.75 1080.21H939.505C918.286 1080.21 880.353 1062.4 880.353 1040.42Z" fill="#C10074" fill-opacity="0.62"/>
<path d="M559.212 230.266C559.212 208.292 556.412 188.987 577.63 188.987H853.633C874.852 188.987 869.215 208.292 869.215 230.266C869.215 252.24 874.852 270.053 853.633 270.053H577.63C556.412 270.053 559.212 252.24 559.212 230.266Z" fill="#FFE8A3" fill-opacity="0.62"/>
<path d="M69.4288 228.774C69.4288 206.8 86.6296 188.987 107.848 188.987H484.564C505.782 188.987 539.901 206.8 539.901 228.774C539.901 250.748 505.782 268.561 484.564 268.561H107.848C86.6296 268.561 69.4288 250.748 69.4288 228.774Z" fill="#2700C1" fill-opacity="0.62"/>
<path d="M556.121 1047.5C556.121 1025.41 553.338 1006 574.428 1006H848.753C869.842 1006 864.239 1025.41 864.239 1047.5C864.239 1069.59 869.842 1087.5 848.753 1087.5H574.428C553.338 1087.5 556.121 1069.59 556.121 1047.5Z" fill="#FFE8A3" fill-opacity="0.62"/>
<path d="M556.121 945.5C556.121 923.409 553.338 904 574.428 904H848.753C869.842 904 864.239 923.409 864.239 945.5C864.239 967.591 869.842 985.5 848.753 985.5H574.428C553.338 985.5 556.121 967.591 556.121 945.5Z" fill="#FFE8A3" fill-opacity="0.62"/>
<path d="M556.121 843.5C556.121 821.409 553.338 802 574.428 802H848.753C869.842 802 864.239 821.409 864.239 843.5C864.239 865.591 869.842 883.5 848.753 883.5H574.428C553.338 883.5 556.121 865.591 556.121 843.5Z" fill="#FFE8A3" fill-opacity="0.62"/>
<path d="M556.121 639.5C556.121 617.409 553.338 598 574.428 598H848.753C869.842 598 864.239 617.409 864.239 639.5C864.239 661.591 869.842 679.5 848.753 679.5H574.428C553.338 679.5 556.121 661.591 556.121 639.5Z" fill="#FFE8A3" fill-opacity="0.62"/>
<path d="M556.121 741.5C556.121 719.409 553.338 700 574.428 700H848.753C869.842 700 864.239 719.409 864.239 741.5C864.239 763.591 869.842 781.5 848.753 781.5H574.428C553.338 781.5 556.121 763.591 556.121 741.5Z" fill="#FFE8A3" fill-opacity="0.62"/>
<path d="M556.121 537.5C556.121 515.409 553.338 496 574.428 496H848.753C869.842 496 864.239 515.409 864.239 537.5C864.239 559.591 869.842 577.5 848.753 577.5H574.428C553.338 577.5 556.121 559.591 556.121 537.5Z" fill="#FFE8A3" fill-opacity="0.62"/>
<path d="M556.121 435.5C556.121 413.409 553.338 394 574.428 394H848.753C869.842 394 864.239 413.409 864.239 435.5C864.239 457.591 869.842 475.5 848.753 475.5H574.428C553.338 475.5 556.121 457.591 556.121 435.5Z" fill="#FFE8A3" fill-opacity="0.62"/>
<path d="M556.597 332C556.597 309.909 553.814 290.5 574.903 290.5H849.228C870.317 290.5 864.715 309.909 864.715 332C864.715 354.091 870.317 372 849.228 372H574.903C553.814 372 556.597 354.091 556.597 332Z" fill="#FFE8A3" fill-opacity="0.62"/>
<path d="M442.384 103L447.213 73.9091H454.244L452.312 85.5852H463.776L465.707 73.9091H472.724L467.895 103H460.878L462.81 91.3097H451.347L449.415 103H442.384Z" fill="white"/>
<path d="M502.107 88.9091C501.576 92.0436 500.535 94.6903 498.982 96.8494C497.438 98.9991 495.558 100.628 493.342 101.736C491.136 102.844 488.764 103.398 486.226 103.398C483.546 103.398 481.226 102.801 479.266 101.608C477.305 100.415 475.88 98.6771 474.99 96.3949C474.109 94.1127 473.939 91.3428 474.479 88.0852C474.99 84.9508 476.018 82.2992 477.561 80.1307C479.114 77.9621 481.003 76.3191 483.229 75.2017C485.464 74.0748 487.859 73.5114 490.416 73.5114C493.077 73.5114 495.383 74.1127 497.334 75.3153C499.294 76.518 500.715 78.2651 501.595 80.5568C502.476 82.8485 502.646 85.6326 502.107 88.9091ZM495.075 88.0852C495.369 86.2576 495.369 84.7188 495.075 83.4688C494.791 82.2188 494.232 81.2765 493.399 80.642C492.566 79.9981 491.482 79.6761 490.146 79.6761C488.669 79.6761 487.334 80.0407 486.141 80.7699C484.957 81.4896 483.967 82.5407 483.172 83.9233C482.376 85.2964 481.822 86.9583 481.51 88.9091C481.188 90.7557 481.179 92.2945 481.482 93.5256C481.794 94.7566 482.376 95.6847 483.229 96.3097C484.081 96.9252 485.165 97.233 486.482 97.233C487.949 97.233 489.27 96.8778 490.445 96.1676C491.619 95.4574 492.599 94.4205 493.385 93.0568C494.18 91.6932 494.744 90.036 495.075 88.0852Z" fill="white"/>
<path d="M508.697 73.9091H517.405L521.808 91.9205H522.149L532.518 73.9091H541.226L536.396 103H529.55L532.518 85.1307H532.277L522.362 102.815H518.001L513.967 85.0312H513.726L510.714 103H503.868L508.697 73.9091Z" fill="white"/>
<path d="M540.782 103L545.612 73.9091H565.896L564.93 79.6193H551.677L550.711 85.5852H562.927L561.961 91.3097H549.745L548.779 97.2898H562.032L561.066 103H540.782Z" fill="white"/>
<path d="M325.5 21H754.5L718 115.744H289L325.5 21Z" fill="#293FFF"/>
<path d="M747.039 40.6023H1197L1158.96 136H709L747.039 40.6023Z" fill="#FF416E"/>
<path d="M712.818 53.5517L715.787 81.3958H716.028L726.071 53.5517H733.94L719.295 91.5682H709.935L704.949 53.5517H712.818Z" fill="white"/>
<path d="M751.32 65.0234C751.395 63.625 751.111 62.5422 750.467 61.775C749.833 61.0077 748.829 60.6241 747.456 60.6241C746.547 60.6241 745.77 60.7788 745.126 61.0881C744.483 61.3851 743.976 61.8059 743.607 62.3504C743.237 62.8825 743.005 63.5013 742.911 64.2067C742.825 64.7636 742.849 65.2586 742.982 65.6917C743.114 66.1248 743.346 66.5085 743.678 66.8426C744.018 67.1767 744.44 67.4675 744.942 67.715C745.453 67.9625 746.026 68.1791 746.661 68.3647L749.047 69.1072C750.429 69.5156 751.627 70.0601 752.641 70.7408C753.663 71.409 754.492 72.2196 755.126 73.1725C755.761 74.113 756.196 75.1958 756.433 76.421C756.67 77.6461 756.689 79.0198 756.49 80.5419C756.187 82.9427 755.463 85.0031 754.317 86.7233C753.18 88.4434 751.694 89.7614 749.857 90.6772C748.029 91.5929 745.903 92.0508 743.479 92.0508C741.054 92.0508 738.995 91.5744 737.3 90.6215C735.614 89.6562 734.393 88.2021 733.635 86.2592C732.877 84.3163 732.674 81.866 733.024 78.9084H739.743C739.639 80.1335 739.757 81.1545 740.098 81.9712C740.448 82.788 740.988 83.4068 741.717 83.8275C742.446 84.2483 743.327 84.4586 744.359 84.4586C745.306 84.4586 746.135 84.2916 746.845 83.9575C747.565 83.6233 748.138 83.1592 748.564 82.5652C749 81.9712 749.265 81.2906 749.359 80.5233C749.454 79.818 749.364 79.2054 749.089 78.6856C748.824 78.1659 748.37 77.7142 747.726 77.3305C747.091 76.9469 746.258 76.6004 745.226 76.291L742.314 75.3629C739.909 74.5956 738.086 73.3705 736.845 71.6875C735.614 70.0044 735.178 67.7212 735.538 64.8378C735.841 62.4741 736.59 60.4075 737.783 58.6378C738.985 56.8682 740.505 55.4946 742.342 54.5169C744.189 53.5269 746.22 53.0319 748.436 53.0319C750.69 53.0319 752.584 53.5331 754.118 54.5355C755.661 55.5255 756.774 56.9239 757.456 58.7307C758.147 60.5251 758.346 62.6227 758.053 65.0234H751.32Z" fill="white"/>
<path d="M916.676 103H909.119L923.764 73.9091H933.125L938.111 103H930.554L927.358 81.2386H927.131L916.676 103ZM917.585 91.5511H933.381L932.472 96.892H916.676L917.585 91.5511Z" fill="white"/>
<path d="M945.053 103L941.417 73.9091H949.187L950.437 92.9716H950.678L958.832 73.9091H965.167L967.042 93.0142H967.269L974.826 73.9091H982.582L969.3 103H962.525L960.238 85.358H960.011L951.815 103H945.053Z" fill="white"/>
<path d="M983.786 103H976.229L990.874 73.9091H1000.23L1005.22 103H997.663L994.467 81.2386H994.24L983.786 103ZM984.695 91.5511H1000.49L999.581 96.892H983.786L984.695 91.5511Z" fill="white"/>
<path d="M1008.76 73.9091H1016.62L1020.74 86.0824H1021.04L1029.18 73.9091H1037.03L1023.18 93.2841L1021.56 103H1014.57L1016.21 93.2841L1008.76 73.9091Z" fill="white"/>
<path d="M424.384 88L429.213 58.9091H436.244L434.312 70.5852H445.776L447.707 58.9091H454.724L449.895 88H442.878L444.81 76.3097H433.347L431.415 88H424.384Z" fill="white"/>
<path d="M484.107 73.9091C483.576 77.0436 482.535 79.6903 480.982 81.8494C479.438 83.9991 477.558 85.6278 475.342 86.7358C473.136 87.8437 470.764 88.3977 468.226 88.3977C465.546 88.3977 463.226 87.8011 461.266 86.608C459.305 85.4148 457.88 83.6771 456.99 81.3949C456.109 79.1127 455.939 76.3428 456.479 73.0852C456.99 69.9508 458.018 67.2992 459.561 65.1307C461.114 62.9621 463.003 61.3191 465.229 60.2017C467.464 59.0748 469.859 58.5114 472.416 58.5114C475.077 58.5114 477.383 59.1127 479.334 60.3153C481.294 61.518 482.715 63.2651 483.595 65.5568C484.476 67.8485 484.646 70.6326 484.107 73.9091ZM477.075 73.0852C477.369 71.2576 477.369 69.7188 477.075 68.4688C476.791 67.2188 476.232 66.2765 475.399 65.642C474.566 64.9981 473.482 64.6761 472.146 64.6761C470.669 64.6761 469.334 65.0407 468.141 65.7699C466.957 66.4896 465.967 67.5407 465.172 68.9233C464.376 70.2964 463.822 71.9583 463.51 73.9091C463.188 75.7557 463.179 77.2945 463.482 78.5256C463.794 79.7566 464.376 80.6847 465.229 81.3097C466.081 81.9252 467.165 82.233 468.482 82.233C469.949 82.233 471.27 81.8778 472.445 81.1676C473.619 80.4574 474.599 79.4205 475.385 78.0568C476.18 76.6932 476.744 75.036 477.075 73.0852Z" fill="white"/>
<path d="M490.697 58.9091H499.405L503.808 76.9205H504.149L514.518 58.9091H523.226L518.396 88H511.55L514.518 70.1307H514.277L504.362 87.8153H500.001L495.967 70.0312H495.726L492.714 88H485.868L490.697 58.9091Z" fill="white"/>
<path d="M522.782 88L527.612 58.9091H547.896L546.93 64.6193H533.677L532.711 70.5852H544.927L543.961 76.3097H531.745L530.779 82.2898H544.032L543.066 88H522.782Z" fill="white"/>
</svg>
