<svg width="42" height="42" viewBox="0 0 42 42" fill="none" xmlns="http://www.w3.org/2000/svg">
<path d="M15.75 8.75H36.75" stroke="#8C00FA" stroke-width="2.8" stroke-linecap="round" stroke-linejoin="round"/>
<path d="M8.75 12.25V5.25L6.125 7.875" stroke="#8C00FA" stroke-width="2.8" stroke-linecap="round" stroke-linejoin="round"/>
<path d="M9.625 24.5H6.125L9.45824 19.3149C9.56711 19.1455 9.62876 18.9469 9.58491 18.7504C9.48386 18.2975 9.128 17.5 7.875 17.5C6.12502 17.5 6.125 19.0556 6.125 19.0556V19.4444" stroke="#8C00FA" stroke-width="2.8" stroke-linecap="round" stroke-linejoin="round"/>
<path d="M7 33.25H7.875C8.84149 33.25 9.625 34.0335 9.625 35C9.625 35.9665 8.84149 36.75 7.875 36.75H6.125" stroke="#8C00FA" stroke-width="2.8" stroke-linecap="round" stroke-linejoin="round"/>
<path d="M6.125 29.75H9.625L7 33.25" stroke="#8C00FA" stroke-width="2.8" stroke-linecap="round" stroke-linejoin="round"/>
<path d="M15.75 21H36.75" stroke="#8C00FA" stroke-width="2.8" stroke-linecap="round" stroke-linejoin="round"/>
<path d="M15.75 33.25H36.75" stroke="#8C00FA" stroke-width="2.8" stroke-linecap="round" stroke-linejoin="round"/>
</svg>
