<svg width="42" height="42" viewBox="0 0 42 42" fill="none" xmlns="http://www.w3.org/2000/svg">
<path d="M21 26.25C23.8996 26.25 26.25 23.8996 26.25 21C26.25 18.1004 23.8996 15.75 21 15.75C18.1004 15.75 15.75 18.1004 15.75 21C15.75 23.8996 18.1004 26.25 21 26.25Z" stroke="#8C00FA" stroke-width="2.8" stroke-linecap="round" stroke-linejoin="round"/>
<path d="M34.3392 18.192L32.4182 13.5534L35 10.5L31.5 7L28.4632 9.59516L23.7262 7.64705L22.6368 3.5H19.2167L18.1109 7.70198L13.4827 9.65293L10.5 7L7 10.5L9.5434 13.6305L7.65187 18.281L3.5 19.25V22.75L7.70194 23.8971L9.65256 28.5245L7 31.5L10.5 35L13.6345 32.4455L18.1948 34.3215L19.25 38.5H22.75L23.8079 34.3231L28.4464 32.4021C29.2196 32.9548 31.5 35 31.5 35L35 31.5L32.4028 28.4364L34.3243 23.7965L38.4998 22.7101L38.5 19.25L34.3392 18.192Z" stroke="#8C00FA" stroke-width="2.8" stroke-linecap="round" stroke-linejoin="round"/>
</svg>
