<svg width="129" height="30" viewBox="0 0 129 30" fill="none" xmlns="http://www.w3.org/2000/svg">
<path d="M7.67614 30H0.119318L14.7642 0.90909H24.125L29.1108 30H21.554L18.358 8.23864H18.1307L7.67614 30ZM8.58523 18.5511H24.3807L23.4716 23.892H7.67614L8.58523 18.5511ZM36.0533 30L32.4169 0.90909H40.1868L41.4368 19.9716H41.6783L49.8317 0.90909H56.1669L58.0419 20.0142H58.2692L65.826 0.90909H73.5817L60.3004 30H53.5249L51.2379 12.358H51.0107L42.8146 30H36.0533ZM74.7855 30H67.2287L81.8736 0.90909H91.2344L96.2202 30H88.6634L85.4673 8.23864H85.2401L74.7855 30ZM75.6946 18.5511H91.4901L90.581 23.892H74.7855L75.6946 18.5511ZM99.7642 0.90909H107.619L111.739 13.0824H112.037L120.176 0.90909H128.031L114.182 20.2841L112.562 30H105.574L107.207 20.2841L99.7642 0.90909Z" fill="white"/>
</svg>
