<svg width="124" height="31" viewBox="0 0 124 31" fill="none" xmlns="http://www.w3.org/2000/svg">
<path d="M0.383523 30L5.21307 0.90909H12.2443L10.3125 12.5852H21.7756L23.7074 0.90909H30.7244L25.8949 30H18.8778L20.8097 18.3097H9.34659L7.41477 30H0.383523ZM60.1065 15.9091C59.5762 19.0436 58.5346 21.6903 56.9815 23.8494C55.438 25.9991 53.5582 27.6278 51.3423 28.7358C49.1359 29.8438 46.7637 30.3977 44.2259 30.3977C41.5459 30.3977 39.2259 29.8011 37.2656 28.608C35.3054 27.4148 33.8802 25.6771 32.9901 23.3949C32.1094 21.1127 31.9389 18.3428 32.4787 15.0852C32.9901 11.9508 34.0175 9.29924 35.5611 7.13068C37.1141 4.96212 39.0033 3.31913 41.2287 2.2017C43.4635 1.07481 45.8594 0.511363 48.4162 0.511363C51.0772 0.511363 53.383 1.11269 55.3338 2.31534C57.294 3.51799 58.7145 5.26515 59.5952 7.55682C60.4759 9.84848 60.6463 12.6326 60.1065 15.9091ZM53.0753 15.0852C53.3688 13.2576 53.3688 11.7188 53.0753 10.4688C52.7912 9.21875 52.2325 8.27652 51.3991 7.64205C50.5658 6.99811 49.4815 6.67614 48.1463 6.67614C46.669 6.67614 45.3338 7.04072 44.1406 7.76989C42.9569 8.48958 41.9673 9.54072 41.1719 10.9233C40.3764 12.2964 39.8224 13.9583 39.5099 15.9091C39.188 17.7557 39.1785 19.2945 39.4815 20.5256C39.794 21.7566 40.3764 22.6847 41.2287 23.3097C42.081 23.9252 43.1652 24.233 44.4815 24.233C45.9493 24.233 47.2704 23.8778 48.4446 23.1676C49.6188 22.4574 50.599 21.4205 51.3849 20.0568C52.1804 18.6932 52.7438 17.036 53.0753 15.0852ZM66.6974 0.90909H75.4048L79.8082 18.9205H80.1491L90.5185 0.90909H99.2259L94.3963 30H87.5497L90.5185 12.1307H90.277L80.3622 29.8153H76.0014L71.9673 12.0312H71.7259L68.7145 30H61.8679L66.6974 0.90909ZM98.782 30L103.612 0.90909H123.896L122.93 6.61932H109.677L108.711 12.5852H120.927L119.961 18.3097H107.745L106.779 24.2898H120.032L119.066 30H98.782Z" fill="white"/>
</svg>
