<svg width="1492" height="1111" viewBox="0 0 1492 1111" fill="none" xmlns="http://www.w3.org/2000/svg">
<path d="M0 46C0 20.5949 20.5949 0 46 0H1446C1471.41 0 1492 20.5949 1492 46V1065C1492 1090.41 1471.41 1111 1446 1111H46C20.5949 1111 0 1090.41 0 1065V46Z" fill="#700072" fill-opacity="0.41"/>
<path d="M57 215C57 192.909 74.9086 175 97 175H678C700.091 175 718 192.909 718 215C718 237.091 700.091 255 678 255H97C74.9086 255 57 237.091 57 215Z" fill="#2700C1" fill-opacity="0.62"/>
<path d="M756 215C756 192.909 773.909 175 796 175H1377C1399.09 175 1417 192.909 1417 215C1417 237.091 1399.09 255 1377 255H796C773.909 255 756 237.091 756 215Z" fill="#C10074" fill-opacity="0.62"/>
<path d="M57 317C57 294.909 74.9086 277 97 277H678C700.091 277 718 294.909 718 317C718 339.091 700.091 357 678 357H97C74.9086 357 57 339.091 57 317Z" fill="#2700C1" fill-opacity="0.62"/>
<path d="M756 317C756 294.909 773.909 277 796 277H1377C1399.09 277 1417 294.909 1417 317C1417 339.091 1399.09 357 1377 357H796C773.909 357 756 339.091 756 317Z" fill="#C10074" fill-opacity="0.62"/>
<path d="M57 419C57 396.909 74.9086 379 97 379H678C700.091 379 718 396.909 718 419C718 441.091 700.091 459 678 459H97C74.9086 459 57 441.091 57 419Z" fill="#2700C1" fill-opacity="0.62"/>
<path d="M756 419C756 396.909 773.909 379 796 379H1377C1399.09 379 1417 396.909 1417 419C1417 441.091 1399.09 459 1377 459H796C773.909 459 756 441.091 756 419Z" fill="#C10074" fill-opacity="0.62"/>
<path d="M57 521C57 498.909 74.9086 481 97 481H678C700.091 481 718 498.909 718 521C718 543.091 700.091 561 678 561H97C74.9086 561 57 543.091 57 521Z" fill="#2700C1" fill-opacity="0.62"/>
<path d="M756 521C756 498.909 773.909 481 796 481H1377C1399.09 481 1417 498.909 1417 521C1417 543.091 1399.09 561 1377 561H796C773.909 561 756 543.091 756 521Z" fill="#C10074" fill-opacity="0.62"/>
<path d="M57 623C57 600.909 74.9086 583 97 583H678C700.091 583 718 600.909 718 623C718 645.091 700.091 663 678 663H97C74.9086 663 57 645.091 57 623Z" fill="#2700C1" fill-opacity="0.62"/>
<path d="M756 623C756 600.909 773.909 583 796 583H1377C1399.09 583 1417 600.909 1417 623C1417 645.091 1399.09 663 1377 663H796C773.909 663 756 645.091 756 623Z" fill="#C10074" fill-opacity="0.62"/>
<path d="M57 725C57 702.909 74.9086 685 97 685H678C700.091 685 718 702.909 718 725C718 747.091 700.091 765 678 765H97C74.9086 765 57 747.091 57 725Z" fill="#2700C1" fill-opacity="0.62"/>
<path d="M756 725C756 702.909 773.909 685 796 685H1377C1399.09 685 1417 702.909 1417 725C1417 747.091 1399.09 765 1377 765H796C773.909 765 756 747.091 756 725Z" fill="#C10074" fill-opacity="0.62"/>
<path d="M57 827C57 804.909 74.9086 787 97 787H678C700.091 787 718 804.909 718 827C718 849.091 700.091 867 678 867H97C74.9086 867 57 849.091 57 827Z" fill="#2700C1" fill-opacity="0.62"/>
<path d="M756 827C756 804.909 773.909 787 796 787H1377C1399.09 787 1417 804.909 1417 827C1417 849.091 1399.09 867 1377 867H796C773.909 867 756 849.091 756 827Z" fill="#C10074" fill-opacity="0.62"/>
<path d="M57 929C57 906.909 74.9086 889 97 889H678C700.091 889 718 906.909 718 929C718 951.091 700.091 969 678 969H97C74.9086 969 57 951.091 57 929Z" fill="#2700C1" fill-opacity="0.62"/>
<path d="M756 929C756 906.909 773.909 889 796 889H1377C1399.09 889 1417 906.909 1417 929C1417 951.091 1399.09 969 1377 969H796C773.909 969 756 951.091 756 929Z" fill="#C10074" fill-opacity="0.62"/>
<path d="M57 1031C57 1008.91 74.9086 991 97 991H678C700.091 991 718 1008.91 718 1031C718 1053.09 700.091 1071 678 1071H97C74.9086 1071 57 1053.09 57 1031Z" fill="#2700C1" fill-opacity="0.62"/>
<path d="M756 1031C756 1008.91 773.909 991 796 991H1377C1399.09 991 1417 1008.91 1417 1031C1417 1053.09 1399.09 1071 1377 1071H796C773.909 1071 756 1053.09 756 1031Z" fill="#C10074" fill-opacity="0.62"/>
</svg>
