<svg width="908" height="88" viewBox="0 0 908 88" fill="none" xmlns="http://www.w3.org/2000/svg">
<path d="M36.5 0H465.5L429 72.5H0L36.5 0Z" fill="#293FFF"/>
<path d="M458.039 15H908L869.961 88H420L458.039 15Z" fill="#FF416E"/>
<path d="M423.818 24.9091L426.787 46.2159H427.028L437.071 24.9091H444.94L430.295 54H420.935L415.949 24.9091H423.818Z" fill="white"/>
<path d="M462.32 33.6875C462.395 32.6174 462.111 31.7888 461.467 31.2017C460.833 30.6146 459.829 30.321 458.456 30.321C457.547 30.321 456.77 30.4394 456.126 30.6761C455.482 30.9034 454.976 31.2254 454.607 31.642C454.237 32.0492 454.005 32.5227 453.911 33.0625C453.825 33.4886 453.849 33.8674 453.982 34.1989C454.114 34.5303 454.346 34.8239 454.678 35.0795C455.018 35.3352 455.44 35.5578 455.942 35.7472C456.453 35.9366 457.026 36.1023 457.661 36.2443L460.047 36.8125C461.429 37.125 462.627 37.5417 463.641 38.0625C464.663 38.5739 465.492 39.1941 466.126 39.9233C466.761 40.643 467.196 41.4716 467.433 42.4091C467.67 43.3466 467.689 44.3977 467.49 45.5625C467.187 47.3996 466.463 48.9763 465.317 50.2926C464.18 51.6089 462.694 52.6174 460.857 53.3182C459.029 54.0189 456.903 54.3693 454.479 54.3693C452.054 54.3693 449.995 54.0047 448.3 53.2756C446.614 52.5369 445.393 51.4242 444.635 49.9375C443.877 48.4508 443.674 46.5758 444.024 44.3125H450.743C450.639 45.25 450.757 46.0312 451.098 46.6562C451.448 47.2812 451.988 47.7547 452.717 48.0767C453.446 48.3987 454.327 48.5597 455.359 48.5597C456.306 48.5597 457.135 48.4318 457.845 48.1761C458.565 47.9205 459.138 47.5653 459.564 47.1108C460 46.6562 460.265 46.1354 460.359 45.5483C460.454 45.0085 460.364 44.5398 460.089 44.142C459.824 43.7443 459.37 43.3987 458.726 43.1051C458.091 42.8116 457.258 42.5464 456.226 42.3097L453.314 41.5994C450.909 41.0123 449.086 40.0748 447.845 38.7869C446.614 37.4991 446.179 35.7519 446.538 33.5455C446.841 31.7367 447.59 30.1553 448.783 28.8011C449.985 27.447 451.505 26.3958 453.342 25.6477C455.189 24.8902 457.22 24.5114 459.436 24.5114C461.69 24.5114 463.584 24.8949 465.118 25.6619C466.661 26.4195 467.774 27.4896 468.456 28.8722C469.147 30.2453 469.346 31.8504 469.053 33.6875H462.32Z" fill="white"/>
</svg>
