<svg xmlns="http://www.w3.org/2000/svg" width="42" height="42" fill="none" viewBox="0 0 42 42">
  <path stroke="#fff" stroke-linecap="round" stroke-linejoin="round" stroke-width="2.8" d="M21 26.25a5.25 5.25 0 1 0 0-10.5 5.25 5.25 0 0 0 0 10.5Z"/>
  <path stroke="#fff" stroke-linecap="round" stroke-linejoin="round" stroke-width="2.8" d="m34.34 18.192-1.922-4.639L35 10.5 31.5 7l-3.037 2.595-4.737-1.948-1.09-4.147h-3.42l-1.105 4.202-4.628 1.95L10.5 7 7 10.5l2.543 3.13-1.891 4.651-4.152.969v3.5l4.202 1.147 1.95 4.628L7 31.5l3.5 3.5 3.134-2.554 4.56 1.876L19.25 38.5h3.5l1.058-4.177 4.638-1.92C29.22 32.954 31.5 35 31.5 35l3.5-3.5-2.597-3.064 1.921-4.64L38.5 22.71v-3.46l-4.16-1.058Z"/>
</svg>
